<svg width="1080" height="390" viewBox="0 0 1080 390" xmlns="http://www.w3.org/2000/svg"><title>Group</title><g fill="#F5F7FA" fill-rule="evenodd"><rect width="7.5" height="389.027" rx="3.75"/><rect x="16" width="7.5" height="389.027" rx="3.75"/><rect x="32" width="7.5" height="389.027" rx="3.75"/><rect x="48" width="7.5" height="389.027" rx="3.75"/><rect x="64" width="7.5" height="389.027" rx="3.75"/><rect x="80" width="7.5" height="389.027" rx="3.75"/><rect x="96" width="7.5" height="389.027" rx="3.75"/><rect x="112" width="7.5" height="389.027" rx="3.75"/><rect x="128" width="7.5" height="389.027" rx="3.75"/><rect x="144" width="7.5" height="389.027" rx="3.75"/><rect x="160" width="7.5" height="389.027" rx="3.75"/><rect x="176" width="7.5" height="389.027" rx="3.75"/><rect x="192" width="7.5" height="389.027" rx="3.75"/><rect x="208" width="7.5" height="389.027" rx="3.75"/><rect x="224" width="7.5" height="389.027" rx="3.75"/><rect x="240" width="7.5" height="389.027" rx="3.75"/><rect x="256" width="7.5" height="389.027" rx="3.75"/><rect x="272" width="7.5" height="389.027" rx="3.75"/><rect x="288" width="7.5" height="389.027" rx="3.75"/><rect x="304" width="7.5" height="389.027" rx="3.75"/><rect x="320" width="7.5" height="389.027" rx="3.75"/><rect x="336" width="7.5" height="389.027" rx="3.75"/><rect x="352" width="7.5" height="389.027" rx="3.75"/><rect x="368" width="7.5" height="389.027" rx="3.75"/><rect x="384" width="7.5" height="389.027" rx="3.75"/><rect x="400" width="7.5" height="389.027" rx="3.75"/><rect x="416" width="7.5" height="389.027" rx="3.75"/><rect x="432" width="7.5" height="389.027" rx="3.75"/><rect x="448" width="7.5" height="389.027" rx="3.75"/><rect x="464" width="7.5" height="389.027" rx="3.75"/><rect x="480" width="7.5" height="389.027" rx="3.75"/><rect x="496" width="7.5" height="389.027" rx="3.75"/><rect x="512" width="7.5" height="389.027" rx="3.75"/><rect x="528" width="7.5" height="389.027" rx="3.75"/><rect x="544" width="7.5" height="389.027" rx="3.75"/><rect x="560" width="7.5" height="389.027" rx="3.75"/><rect x="576" width="7.5" height="389.027" rx="3.75"/><rect x="592" width="7.5" height="389.027" rx="3.75"/><rect x="608" width="7.5" height="389.027" rx="3.75"/><rect x="624" width="7.5" height="389.027" rx="3.75"/><rect x="640" width="7.5" height="389.027" rx="3.75"/><rect x="656" width="7.5" height="389.027" rx="3.75"/><rect x="672" width="7.5" height="389.027" rx="3.75"/><rect x="688" width="7.5" height="389.027" rx="3.75"/><rect x="704" width="7.5" height="389.027" rx="3.75"/><rect x="720" width="7.5" height="389.027" rx="3.75"/><rect x="736" width="7.5" height="389.027" rx="3.75"/><rect x="752" y=".973" width="7.5" height="389.027" rx="3.75"/><rect x="768" width="7.5" height="389.027" rx="3.75"/><rect x="784" width="7.5" height="389.027" rx="3.75"/><rect x="800" width="7.5" height="389.027" rx="3.75"/><rect x="816" width="7.5" height="389.027" rx="3.75"/><rect x="832" width="7.5" height="389.027" rx="3.75"/><rect x="848" width="7.5" height="389.027" rx="3.75"/><rect x="864" width="7.5" height="389.027" rx="3.75"/><rect x="880" width="7.5" height="389.027" rx="3.75"/><rect x="896" width="7.5" height="389.027" rx="3.75"/><rect x="912" width="7.5" height="389.027" rx="3.75"/><rect x="928" width="7.5" height="389.027" rx="3.75"/><rect x="944" width="7.5" height="389.027" rx="3.75"/><rect x="960" width="7.5" height="389.027" rx="3.75"/><rect x="976" width="7.5" height="389.027" rx="3.75"/><rect x="992" width="7.5" height="389.027" rx="3.75"/><rect x="1008" width="7.5" height="389.027" rx="3.75"/><rect x="1024" width="7.5" height="389.027" rx="3.75"/><rect x="1040" width="7.5" height="389.027" rx="3.75"/><rect x="1056" width="7.5" height="389.027" rx="3.75"/><rect x="1072" width="7.5" height="389.027" rx="3.75"/></g></svg>