<svg width="384" height="150" viewBox="0 0 384 150" xmlns="http://www.w3.org/2000/svg" xmlns:xlink="http://www.w3.org/1999/xlink"><title>Group</title><defs><path id="a" d="M0 0h383.01v150H0z"/></defs><g fill="none" fill-rule="evenodd"><mask id="b" fill="#fff"><use xlink:href="#a"/></mask><use fill="#3370EE" xlink:href="#a"/><g mask="url(#b)" fill-rule="nonzero" fill="#FFF" fill-opacity=".25"><path d="M142.156-51.58l131.04 120.071-71.57 27.473 41.884 109.114L105.76 78.246l74.926-28.761z"/></g><path d="M119.81 71.664c0 3.76 2.369 6.177 7.154 7.275l3.93.904c3.37.757 4.664 1.88 4.664 3.98 0 2.538-2.295 4.174-5.909 4.174-3.418 0-5.761-1.416-6.372-3.857h-4.223c.464 4.54 4.443 7.348 10.449 7.348 6.274 0 10.351-3.174 10.351-8.056 0-3.833-2.343-6.08-7.495-7.251l-3.735-.855c-3.32-.732-4.687-1.88-4.687-3.906 0-2.417 2.172-3.98 5.542-3.98 3.1 0 5.322 1.416 5.81 3.736h4.004c-.488-4.42-4.224-7.178-9.741-7.178-5.835 0-9.741 3.076-9.741 7.666zm36.036-14.258v7.178h-7.056v3.54h7.056v14.99c0 5.518 3.051 8.008 9.619 8.008 1.27 0 4.492-.122 5.151-.244v-3.516c-.708.074-3.369.147-4.858.147-3.736 0-5.762-1.563-5.762-4.444V68.124h10.693v-3.54h-10.742v-7.178h-4.101zm35.425 34.082c-7.007 0-11.475-4.565-11.475-11.718v-4.004c0-7.154 4.468-11.72 11.475-11.72 7.006 0 11.474 4.566 11.474 11.72v4.004c0 7.153-4.468 11.718-11.474 11.718zm0-23.779c-4.542 0-7.374 3.223-7.374 8.423v3.247c0 5.225 2.832 8.423 7.374 8.423 4.54 0 7.373-3.198 7.373-8.423v-3.247c0-5.2-2.832-8.423-7.373-8.423zm29.81 3.564v-6.762h-9.889v3.32h5.884V87.68h-5.347V91h17.603v-3.32h-8.203v-8.545c0-6.739 3.467-10.791 9.326-10.791 1.44 0 3.15.293 4.37.732v-4.663c-.879-.366-2.32-.586-3.833-.586-5.102 0-8.398 2.54-9.375 7.446h-.537zm44.774.22c0-4.907-1.928-7.47-5.615-7.47-2.66 0-4.785 1.61-5.469 4.15h-.439c-.561-2.612-2.32-4.15-4.81-4.15-2.49 0-4.394 1.562-5.053 4.223h-.44v-3.735h-3.71V91h3.735V73.129c0-3.296 1.465-5.322 3.808-5.322 2.246 0 3.418 1.684 3.418 4.882V91h3.711V73.129c0-3.296 1.416-5.322 3.736-5.322 2.221 0 3.393 1.684 3.393 4.907V91h3.735V71.493z" fill="#FFF"/></g></svg>